<?xml version="1.0" standalone="no"?>
<!DOCTYPE svg PUBLIC "-//W3C//DTD SVG 20010904//EN"
 "http://www.w3.org/TR/2001/REC-SVG-20010904/DTD/svg10.dtd">
<svg version="1.0" xmlns="http://www.w3.org/2000/svg"
 width="700.000000pt" height="700.000000pt" viewBox="0 0 700.000000 700.000000"
 preserveAspectRatio="xMidYMid meet">
<metadata>
Created by potrace 1.14, written by Peter Selinger 2001-2017
</metadata>
<g transform="translate(0.000000,700.000000) scale(0.100000,-0.100000)"
fill="#000000" stroke="none">
<path d="M3280 6119 c-30 -4 -73 -10 -95 -13 -291 -38 -633 -170 -905 -350
-126 -84 -342 -267 -419 -356 -250 -288 -444 -664 -525 -1015 -25 -108 -27
-127 -46 -270 -15 -117 -8 -503 12 -620 3 -16 12 -70 21 -120 51 -293 166
-587 327 -840 281 -441 689 -780 1175 -976 275 -110 511 -159 825 -170 180 -6
300 3 470 37 478 94 908 323 1245 665 336 341 566 771 657 1229 38 191 43 245
42 465 0 226 -8 294 -52 485 -172 750 -700 1365 -1407 1640 -175 68 -336 108
-525 131 -96 12 -435 21 -505 13 -16 -2 -65 -6 -108 -9 -43 -4 -87 -8 -97 -10
-21 -5 -138 -17 -165 -18 -11 0 -48 -11 -84 -24 -35 -13 -79 -27 -98 -31 -18
-4 -41 -12 -50 -18 -9 -5 -29 -14 -45 -20 -50 -20 -175 -91 -246 -139 -38 -26
-75 -47 -82 -47 -8 0 -19 -6 -25 -14 -7 -8 -27 -26 -45 -41 -19 -14 -52 -41
-75 -60 -22 -19 -72 -60 -110 -91 -110 -89 -124 -108 -136 -178 -15 -85 -5
-141 51 -281 25 -63 84 -207 130 -320 47 -113 124 -302 172 -420 48 -118 103
-253 122 -300 20 -47 58 -141 85 -210 27 -69 54 -134 60 -145 6 -11 22 -54 37
-95 24 -68 77 -203 95 -240 5 -11 70 -173 144 -360 74 -187 156 -394 183 -460
26 -66 49 -125 51 -130 37 -99 68 -131 155 -162 36 -12 104 -35 152 -50 49
-15 96 -30 105 -34 10 -3 48 -15 85 -27 37 -12 81 -26 98 -32 17 -6 68 -22
112 -35 44 -14 94 -30 110 -35 17 -5 41 -13 55 -18 14 -4 36 -11 50 -15 14 -4
61 -19 105 -34 44 -14 89 -29 100 -31 11 -3 115 -35 230 -72 116 -37 216 -66
223 -66 43 0 198 68 180 79 -3 2 -1 11 6 19 6 8 9 19 5 25 -3 5 -2 10 3 10 5
0 14 21 20 47 6 27 25 96 43 155 17 60 34 115 36 123 2 8 13 50 25 92 12 42
23 85 25 95 2 10 7 28 10 40 4 13 9 35 12 50 3 15 12 50 20 77 8 27 12 51 10
53 -2 2 1 15 7 28 6 13 12 33 15 44 2 11 20 76 38 145 19 69 39 146 45 172 7
26 17 50 25 53 7 2 11 11 9 19 -1 8 3 17 10 19 7 3 12 11 13 19 0 8 1 18 3 22
3 11 32 116 43 160 6 22 18 69 28 105 10 36 19 70 20 75 2 9 15 61 35 130 5
17 10 37 11 45 1 8 9 38 18 65 9 28 18 57 20 65 1 8 8 33 13 55 6 22 13 47 15
55 2 8 11 42 19 75 9 33 18 69 21 80 3 11 7 31 10 45 2 14 7 36 10 50 3 14 8
51 11 83 3 32 8 66 10 75 25 97 24 507 -1 627 -3 14 -7 43 -10 65 -19 140 -85
374 -142 505 -136 313 -332 574 -577 772 -58 47 -111 89 -118 94 -7 6 -15 11
-19 11 -4 0 -29 15 -56 33 -58 39 -247 129 -341 162 -38 14 -76 28 -83 32 -36
18 -295 73 -416 89 -76 10 -410 20 -470 14z"/>
</g>
</svg> 